<svg data-v-0dd9719b="" version="1.0" xmlns="http://www.w3.org/2000/svg" xmlns:xlink="http://www.w3.org/1999/xlink" width="100%" height="100%" viewBox="0 0 340.000000 250.000000" preserveAspectRatio="xMidYMid meet" color-interpolation-filters="sRGB" style="margin: auto;"> <rect data-v-0dd9719b="" x="0" y="0" width="100%" height="100%" fill="#fff" fill-opacity="1" class="background"></rect> <rect data-v-0dd9719b="" x="0" y="0" width="100%" height="100%" fill="url(#watermark)" fill-opacity="1" class="watermarklayer"></rect> <g data-v-0dd9719b="" fill="#f08300" class="icon-text-wrapper icon-svg-group iconsvg" transform="translate(85.56999969482422,75.187744140625)"><g class="iconsvg-imagesvg" transform="translate(54.43000030517578,0)"><g><rect fill="#f08300" fill-opacity="0" stroke-width="2" x="0" y="0" width="60" height="51.39450421434935" class="image-rect"></rect> <svg x="0" y="0" width="60" height="51.39450421434935" filtersec="colorsb236933349" class="image-svg-svg primary" style="overflow: visible;"><svg xmlns="http://www.w3.org/2000/svg" viewBox="0 0 47.250999450683594 40.4739990234375"><g style="isolation:isolate"><g fill="#f08300"><path style="mix-blend-mode:multiply" d="M44.919 5.675l-6.768 25.552 8.253-2.536.847-22.721-2.332-.295zM29.104 3.677l4.3 19.412h.083l3.842-18.373-8.225-1.039zM25.964 13.862h-.083l-4.613 19.909h-7.109L6.221 3.014h7.98l4.115 19.992h.083L22.93 3.014h.923L0 0l8.058 40.474 22.473-6.905-4.567-19.707z"></path></g></g></svg></svg> <!----></g></g> <g transform="translate(0,58.394508361816406)"><g data-gra="path-name" fill-rule="" class="tp-name iconsvg-namesvg"><g transform="scale(1)"><g><path d="M41.4-21.55L41.1-26.52 32.73-26.22 30.98-36.64 24.95-35.96 26.86-26.05 1.1-25.25 1.49-19.25 27.88-20.74 32.77 4.59 39.1 3.66 34-18.49 33.58-21.12ZM39.06-35.11L33.41-34.55 34.89-28.56 39.65-29.16ZM19.34-8.97L25.8-9.1 25.54-14.83 19.42-14.32 19.46-18.74 13.43-18.62 13.86-3.23 9.78-3.02 9.73-14.83 4.12-14.62 4.68-2.85 2.17-2.76 2.59 2.93 25.88 1.45 25.67-3.66 19.3-3.4ZM22.74-33.96L3.83-33.36 4.21-28.14 23.04-29.28ZM73.19-8.33L80.75-16.07 82.11-34.68 56.1-34.13 56.82-28.01 76.12-29.33 75.4-17.94 68.94-11.86 64.69-15.47 62.69-24.91 56.99-24.01 60.22-12.79 65.11-8.25 55.46 0.98 61.45 3.83 69.32-4.29 77.73 3.57 83.68 0.51ZM51-23.76L55.21-26.14 49.17-35.36 44.16-32.47ZM51.09-13.13L54.87-16.15 47.34-24.31 42.84-20.57ZM51.51 3.36L53.8-11.43 49.3-11.69 45.52 2.55ZM123.29-34.68L88.61-33.83 89.25-18.28 122.83-18.96ZM117.34-23.25L94.56-22.57 94.44-24.4 115.94-24.86 115.69-28.94 94.22-27.97 94.09-29.88 117.3-30.52ZM109.78-2.3L109.78-4.38 124.44-4.89 124.23-8.71 109.73-8.5 109.73-10.67 124.91-11.26 124.65-15.6 109.73-14.92 109.73-17.77 103.74-17.51 103.83-14.66 94.22-14.24 94.73-16.79 88.91-17.17 88.19-9.82 103.95-10.46 104.04-8.42 88.74-8.2 89.04-3.61 104.21-4.17 104.25-2.17 86.95-1.83 87.13 3.27 125.8 1.57 125.5-2.55ZM138.85 3.23L139.02-35.7 133.32-35.45 134 3.49ZM132.3-7.01L132.64-28.86 130.56-28.99 129.12-7.1ZM140.42-7.31L143.27-7.57 141.82-29.03 139.91-28.9ZM159.67-9.05L163.2-16.28 149.94-15.98 150.24-11.18 156.44-11.99 154.49-9.05 144.71-9.05 144.93-3.78 154.49-4.29 154.7-1.49 149.43-1.74 149.13 3.15 160.44 2.89 159.72-4.55 168.56-5.02 168.47-9.05ZM148.24-22.14L143.22-14.32 147.9-12.84 152.02-21.63ZM164.9-13.35L169.96-14.62 164.9-23.08 160.78-22.19ZM143.65-22.7L153.51-23.33 153.59-17.04 159.21-17.21 158.78-23.67 168.81-24.35 168.47-28.31 158.53-28.09 158.4-30.64 167.49-31.2 166.98-35.66 156.1-34.55 144.25-33.58 144.59-29.88 153.47-30.39 153.47-27.97 143.4-27.8Z" transform="translate(-1.100000023841858, 36.63999938964844)"></path></g> <!----> <!----> <!----> <!----> <!----> <!----> <!----></g></g> <!----></g></g><defs v-gra="od"></defs></svg>